<?xml version="1.0" encoding="UTF-8" standalone="no"?><svg xmlns="http://www.w3.org/2000/svg" xmlns:xlink="http://www.w3.org/1999/xlink" contentScriptType="application/ecmascript" contentStyleType="text/css" height="660px" preserveAspectRatio="none" style="width:600px;height:660px;" version="1.1" viewBox="0 0 600 660" width="600px" zoomAndPan="magnify"><defs><filter height="300%" id="f19rzfen4vf66m" width="300%" x="-1" y="-1"><feGaussianBlur result="blurOut" stdDeviation="2.0"/><feColorMatrix in="blurOut" result="blurOut2" type="matrix" values="0 0 0 0 0 0 0 0 0 0 0 0 0 0 0 0 0 0 .4 0"/><feOffset dx="4.0" dy="4.0" in="blurOut2" result="blurOut3"/><feBlend in="SourceGraphic" in2="blurOut3" mode="normal"/></filter></defs><g><rect fill="#FEFECE" filter="url(#f19rzfen4vf66m)" height="34.1328" rx="12.5" ry="12.5" style="stroke: #A80036; stroke-width: 1.5;" width="47" x="272" y="317.7305"/><text fill="#000000" font-family="sans-serif" font-size="12" lengthAdjust="spacingAndGlyphs" textLength="27" x="282" y="339.332">peer</text><rect fill="#FEFECE" filter="url(#f19rzfen4vf66m)" height="34.1328" rx="12.5" ry="12.5" style="stroke: #A80036; stroke-width: 1.5;" width="78" x="369" y="236.5313"/><text fill="#000000" font-family="sans-serif" font-size="12" lengthAdjust="spacingAndGlyphs" textLength="58" x="379" y="258.1328">chaincode</text><rect fill="#FEFECE" filter="url(#f19rzfen4vf66m)" height="34.1328" rx="12.5" ry="12.5" style="stroke: #A80036; stroke-width: 1.5;" width="53" x="497" y="47.0664"/><text fill="#000000" font-family="sans-serif" font-size="12" lengthAdjust="spacingAndGlyphs" textLength="33" x="507" y="68.668">install</text><path d="M447,253.5977 L457,253.5977 C472,253.5977 472,64.1328 487,64.1328 L497,64.1328 " fill="none" style="stroke: #A80036; stroke-width: 1.0;"/><rect fill="#FEFECE" filter="url(#f19rzfen4vf66m)" height="34.1328" rx="12.5" ry="12.5" style="stroke: #A80036; stroke-width: 1.5;" width="79" x="497" y="101.1992"/><text fill="#000000" font-family="sans-serif" font-size="12" lengthAdjust="spacingAndGlyphs" textLength="59" x="507" y="122.8008">instantiate</text><path d="M447,253.5977 L457,253.5977 C472,253.5977 472,118.2656 487,118.2656 L497,118.2656 " fill="none" style="stroke: #A80036; stroke-width: 1.0;"/><rect fill="#FEFECE" filter="url(#f19rzfen4vf66m)" height="34.1328" rx="12.5" ry="12.5" style="stroke: #A80036; stroke-width: 1.5;" width="57" x="497" y="155.332"/><text fill="#000000" font-family="sans-serif" font-size="12" lengthAdjust="spacingAndGlyphs" textLength="37" x="507" y="176.9336">invoke</text><path d="M447,253.5977 L457,253.5977 C472,253.5977 472,172.3984 487,172.3984 L497,172.3984 " fill="none" style="stroke: #A80036; stroke-width: 1.0;"/><rect fill="#FEFECE" filter="url(#f19rzfen4vf66m)" height="34.1328" rx="12.5" ry="12.5" style="stroke: #A80036; stroke-width: 1.5;" width="69" x="497" y="209.4648"/><text fill="#000000" font-family="sans-serif" font-size="12" lengthAdjust="spacingAndGlyphs" textLength="49" x="507" y="231.0664">package</text><path d="M447,253.5977 L457,253.5977 C472,253.5977 472,226.5313 487,226.5313 L497,226.5313 " fill="none" style="stroke: #A80036; stroke-width: 1.0;"/><rect fill="#FEFECE" filter="url(#f19rzfen4vf66m)" height="34.1328" rx="12.5" ry="12.5" style="stroke: #A80036; stroke-width: 1.5;" width="53" x="497" y="263.5977"/><text fill="#000000" font-family="sans-serif" font-size="12" lengthAdjust="spacingAndGlyphs" textLength="33" x="507" y="285.1992">query</text><path d="M447,253.5977 L457,253.5977 C472,253.5977 472,280.6641 487,280.6641 L497,280.6641 " fill="none" style="stroke: #A80036; stroke-width: 1.0;"/><rect fill="#FEFECE" filter="url(#f19rzfen4vf66m)" height="34.1328" rx="12.5" ry="12.5" style="stroke: #A80036; stroke-width: 1.5;" width="92" x="497" y="317.7305"/><text fill="#000000" font-family="sans-serif" font-size="12" lengthAdjust="spacingAndGlyphs" textLength="72" x="507" y="339.332">signpackage</text><path d="M447,253.5977 L457,253.5977 C472,253.5977 472,334.7969 487,334.7969 L497,334.7969 " fill="none" style="stroke: #A80036; stroke-width: 1.0;"/><rect fill="#FEFECE" filter="url(#f19rzfen4vf66m)" height="34.1328" rx="12.5" ry="12.5" style="stroke: #A80036; stroke-width: 1.5;" width="69" x="497" y="371.8633"/><text fill="#000000" font-family="sans-serif" font-size="12" lengthAdjust="spacingAndGlyphs" textLength="49" x="507" y="393.4648">upgrade</text><path d="M447,253.5977 L457,253.5977 C472,253.5977 472,388.9297 487,388.9297 L497,388.9297 " fill="none" style="stroke: #A80036; stroke-width: 1.0;"/><rect fill="#FEFECE" filter="url(#f19rzfen4vf66m)" height="34.1328" rx="12.5" ry="12.5" style="stroke: #A80036; stroke-width: 1.5;" width="36" x="497" y="425.9961"/><text fill="#000000" font-family="sans-serif" font-size="12" lengthAdjust="spacingAndGlyphs" textLength="16" x="507" y="447.5977">list</text><path d="M447,253.5977 L457,253.5977 C472,253.5977 472,443.0625 487,443.0625 L497,443.0625 " fill="none" style="stroke: #A80036; stroke-width: 1.0;"/><path d="M319,334.7969 L329,334.7969 C344,334.7969 344,253.5977 359,253.5977 L369,253.5977 " fill="none" style="stroke: #A80036; stroke-width: 1.0;"/><rect fill="#FEFECE" filter="url(#f19rzfen4vf66m)" height="34.1328" rx="12.5" ry="12.5" style="stroke: #A80036; stroke-width: 1.5;" width="49" x="369" y="507.1953"/><text fill="#000000" font-family="sans-serif" font-size="12" lengthAdjust="spacingAndGlyphs" textLength="29" x="379" y="528.7969">node</text><rect fill="#FEFECE" filter="url(#f19rzfen4vf66m)" height="34.1328" rx="12.5" ry="12.5" style="stroke: #A80036; stroke-width: 1.5;" width="46" x="468" y="480.1289"/><text fill="#000000" font-family="sans-serif" font-size="12" lengthAdjust="spacingAndGlyphs" textLength="26" x="478" y="501.7305">start</text><path d="M418,524.2617 L428,524.2617 C443,524.2617 443,497.1953 458,497.1953 L468,497.1953 " fill="none" style="stroke: #A80036; stroke-width: 1.0;"/><rect fill="#FEFECE" filter="url(#f19rzfen4vf66m)" height="34.1328" rx="12.5" ry="12.5" style="stroke: #A80036; stroke-width: 1.5;" width="54" x="468" y="534.2617"/><text fill="#000000" font-family="sans-serif" font-size="12" lengthAdjust="spacingAndGlyphs" textLength="34" x="478" y="555.8633">status</text><path d="M418,524.2617 L428,524.2617 C443,524.2617 443,551.3281 458,551.3281 L468,551.3281 " fill="none" style="stroke: #A80036; stroke-width: 1.0;"/><path d="M319,334.7969 L329,334.7969 C344,334.7969 344,524.2617 359,524.2617 L369,524.2617 " fill="none" style="stroke: #A80036; stroke-width: 1.0;"/><rect fill="#FEFECE" filter="url(#f19rzfen4vf66m)" height="34.1328" rx="12.5" ry="12.5" style="stroke: #A80036; stroke-width: 1.5;" width="61" x="369" y="588.3945"/><text fill="#000000" font-family="sans-serif" font-size="12" lengthAdjust="spacingAndGlyphs" textLength="41" x="379" y="609.9961">version</text><path d="M319,334.7969 L329,334.7969 C344,334.7969 344,605.4609 359,605.4609 L369,605.4609 " fill="none" style="stroke: #A80036; stroke-width: 1.0;"/><rect fill="#FEFECE" filter="url(#f19rzfen4vf66m)" height="34.1328" rx="12.5" ry="12.5" style="stroke: #A80036; stroke-width: 1.5;" width="64" x="158" y="182.3984"/><text fill="#000000" font-family="sans-serif" font-size="12" lengthAdjust="spacingAndGlyphs" textLength="44" x="168" y="204">channel</text><rect fill="#FEFECE" filter="url(#f19rzfen4vf66m)" height="34.1328" rx="12.5" ry="12.5" style="stroke: #A80036; stroke-width: 1.5;" width="56" x="52" y="20"/><text fill="#000000" font-family="sans-serif" font-size="12" lengthAdjust="spacingAndGlyphs" textLength="36" x="62" y="41.6016">create</text><path d="M158,199.4648 L148,199.4648 C133,199.4648 133,37.0664 118,37.0664 L108,37.0664 " fill="none" style="stroke: #A80036; stroke-width: 1.0;"/><rect fill="#FEFECE" filter="url(#f19rzfen4vf66m)" height="34.1328" rx="12.5" ry="12.5" style="stroke: #A80036; stroke-width: 1.5;" width="48" x="60" y="74.1328"/><text fill="#000000" font-family="sans-serif" font-size="12" lengthAdjust="spacingAndGlyphs" textLength="28" x="70" y="95.7344">fetch</text><path d="M158,199.4648 L148,199.4648 C133,199.4648 133,91.1992 118,91.1992 L108,91.1992 " fill="none" style="stroke: #A80036; stroke-width: 1.0;"/><rect fill="#FEFECE" filter="url(#f19rzfen4vf66m)" height="34.1328" rx="12.5" ry="12.5" style="stroke: #A80036; stroke-width: 1.5;" width="41" x="67" y="128.2656"/><text fill="#000000" font-family="sans-serif" font-size="12" lengthAdjust="spacingAndGlyphs" textLength="21" x="77" y="149.8672">join</text><path d="M158,199.4648 L148,199.4648 C133,199.4648 133,145.332 118,145.332 L108,145.332 " fill="none" style="stroke: #A80036; stroke-width: 1.0;"/><rect fill="#FEFECE" filter="url(#f19rzfen4vf66m)" height="34.1328" rx="12.5" ry="12.5" style="stroke: #A80036; stroke-width: 1.5;" width="36" x="72" y="182.3984"/><text fill="#000000" font-family="sans-serif" font-size="12" lengthAdjust="spacingAndGlyphs" textLength="16" x="82" y="204">list</text><path d="M158,199.4648 L148,199.4648 C133,199.4648 133,199.4648 118,199.4648 L108,199.4648 " fill="none" style="stroke: #A80036; stroke-width: 1.0;"/><rect fill="#FEFECE" filter="url(#f19rzfen4vf66m)" height="34.1328" rx="12.5" ry="12.5" style="stroke: #A80036; stroke-width: 1.5;" width="61" x="47" y="236.5313"/><text fill="#000000" font-family="sans-serif" font-size="12" lengthAdjust="spacingAndGlyphs" textLength="41" x="57" y="258.1328">update</text><path d="M158,199.4648 L148,199.4648 C133,199.4648 133,253.5977 118,253.5977 L108,253.5977 " fill="none" style="stroke: #A80036; stroke-width: 1.0;"/><rect fill="#FEFECE" filter="url(#f19rzfen4vf66m)" height="34.1328" rx="12.5" ry="12.5" style="stroke: #A80036; stroke-width: 1.5;" width="88" x="20" y="290.6641"/><text fill="#000000" font-family="sans-serif" font-size="12" lengthAdjust="spacingAndGlyphs" textLength="68" x="30" y="312.2656">signconfigtx</text><path d="M158,199.4648 L148,199.4648 C133,199.4648 133,307.7305 118,307.7305 L108,307.7305 " fill="none" style="stroke: #A80036; stroke-width: 1.0;"/><rect fill="#FEFECE" filter="url(#f19rzfen4vf66m)" height="34.1328" rx="12.5" ry="12.5" style="stroke: #A80036; stroke-width: 1.5;" width="59" x="49" y="344.7969"/><text fill="#000000" font-family="sans-serif" font-size="12" lengthAdjust="spacingAndGlyphs" textLength="39" x="59" y="366.3984">getinfo</text><path d="M158,199.4648 L148,199.4648 C133,199.4648 133,361.8633 118,361.8633 L108,361.8633 " fill="none" style="stroke: #A80036; stroke-width: 1.0;"/><path d="M272,334.7969 L262,334.7969 C247,334.7969 247,199.4648 232,199.4648 L222,199.4648 " fill="none" style="stroke: #A80036; stroke-width: 1.0;"/><rect fill="#FEFECE" filter="url(#f19rzfen4vf66m)" height="34.1328" rx="12.5" ry="12.5" style="stroke: #A80036; stroke-width: 1.5;" width="73" x="149" y="507.1953"/><text fill="#000000" font-family="sans-serif" font-size="12" lengthAdjust="spacingAndGlyphs" textLength="53" x="159" y="528.7969">clilogging</text><rect fill="#FEFECE" filter="url(#f19rzfen4vf66m)" height="34.1328" rx="12.5" ry="12.5" style="stroke: #A80036; stroke-width: 1.5;" width="67" x="32" y="398.9297"/><text fill="#000000" font-family="sans-serif" font-size="12" lengthAdjust="spacingAndGlyphs" textLength="47" x="42" y="420.5313">getLevel</text><path d="M149,524.2617 L139,524.2617 C124,524.2617 124,415.9961 109,415.9961 L99,415.9961 " fill="none" style="stroke: #A80036; stroke-width: 1.0;"/><rect fill="#FEFECE" filter="url(#f19rzfen4vf66m)" height="34.1328" rx="12.5" ry="12.5" style="stroke: #A80036; stroke-width: 1.5;" width="66" x="33" y="453.0625"/><text fill="#000000" font-family="sans-serif" font-size="12" lengthAdjust="spacingAndGlyphs" textLength="46" x="43" y="474.6641">setLevel</text><path d="M149,524.2617 L139,524.2617 C124,524.2617 124,470.1289 109,470.1289 L99,470.1289 " fill="none" style="stroke: #A80036; stroke-width: 1.0;"/><rect fill="#FEFECE" filter="url(#f19rzfen4vf66m)" height="34.1328" rx="12.5" ry="12.5" style="stroke: #A80036; stroke-width: 1.5;" width="89" x="10" y="507.1953"/><text fill="#000000" font-family="sans-serif" font-size="12" lengthAdjust="spacingAndGlyphs" textLength="69" x="20" y="528.7969">revertLevels</text><path d="M149,524.2617 L139,524.2617 C124,524.2617 124,524.2617 109,524.2617 L99,524.2617 " fill="none" style="stroke: #A80036; stroke-width: 1.0;"/><rect fill="#FEFECE" filter="url(#f19rzfen4vf66m)" height="34.1328" rx="12.5" ry="12.5" style="stroke: #A80036; stroke-width: 1.5;" width="85" x="14" y="561.3281"/><text fill="#000000" font-family="sans-serif" font-size="12" lengthAdjust="spacingAndGlyphs" textLength="65" x="24" y="582.9297">getLogSpec</text><path d="M149,524.2617 L139,524.2617 C124,524.2617 124,578.3945 109,578.3945 L99,578.3945 " fill="none" style="stroke: #A80036; stroke-width: 1.0;"/><rect fill="#FEFECE" filter="url(#f19rzfen4vf66m)" height="34.1328" rx="12.5" ry="12.5" style="stroke: #A80036; stroke-width: 1.5;" width="84" x="15" y="615.4609"/><text fill="#000000" font-family="sans-serif" font-size="12" lengthAdjust="spacingAndGlyphs" textLength="64" x="25" y="637.0625">setLogSpec</text><path d="M149,524.2617 L139,524.2617 C124,524.2617 124,632.5273 109,632.5273 L99,632.5273 " fill="none" style="stroke: #A80036; stroke-width: 1.0;"/><path d="M272,334.7969 L262,334.7969 C247,334.7969 247,524.2617 232,524.2617 L222,524.2617 " fill="none" style="stroke: #A80036; stroke-width: 1.0;"/><!--
@startmindmap
+ peer
++ chaincode
+++ install
+++ instantiate
+++ invoke
+++ package
+++ query
+++ signpackage
+++ upgrade
+++ list
- - channel
- - - create
- - - fetch
- - - join
- - - list
- - - update
- - - signconfigtx
- - - getinfo
- - clilogging
- - - getLevel
- - - setLevel
- - - revertLevels
- - - getLogSpec
- - - setLogSpec
++ node
+++ start
+++ status
++ version
@endmindmap

PlantUML version 1.2019.06(Sat May 25 01:10:25 CST 2019)
(APACHE source distribution)
Java Runtime: Java(TM) SE Runtime Environment
JVM: Java HotSpot(TM) 64-Bit Server VM
Java Version: 1.8.0_101-b13
Operating System: Mac OS X
OS Version: 10.14.5
Default Encoding: UTF-8
Language: en
Country: US
--></g></svg>