<?xml version="1.0" encoding="UTF-8" standalone="no"?><svg xmlns="http://www.w3.org/2000/svg" xmlns:xlink="http://www.w3.org/1999/xlink" contentScriptType="application/ecmascript" contentStyleType="text/css" height="822px" preserveAspectRatio="none" style="width:338px;height:822px;" version="1.1" viewBox="0 0 338 822" width="338px" zoomAndPan="magnify"><defs><filter height="300%" id="fx7mqd1blis0r" width="300%" x="-1" y="-1"><feGaussianBlur result="blurOut" stdDeviation="2.0"/><feColorMatrix in="blurOut" result="blurOut2" type="matrix" values="0 0 0 0 0 0 0 0 0 0 0 0 0 0 0 0 0 0 .4 0"/><feOffset dx="4.0" dy="4.0" in="blurOut2" result="blurOut3"/><feBlend in="SourceGraphic" in2="blurOut3" mode="normal"/></filter></defs><g><rect fill="#FEFECE" filter="url(#fx7mqd1blis0r)" height="34.1328" rx="12.5" ry="12.5" style="stroke: #A80036; stroke-width: 1.5;" width="47" x="10" y="398.9297"/><text fill="#000000" font-family="sans-serif" font-size="12" lengthAdjust="spacingAndGlyphs" textLength="27" x="20" y="420.5313">peer</text><rect fill="#FEFECE" filter="url(#fx7mqd1blis0r)" height="34.1328" rx="12.5" ry="12.5" style="stroke: #A80036; stroke-width: 1.5;" width="78" x="107" y="209.4648"/><text fill="#000000" font-family="sans-serif" font-size="12" lengthAdjust="spacingAndGlyphs" textLength="58" x="117" y="231.0664">chaincode</text><rect fill="#FEFECE" filter="url(#fx7mqd1blis0r)" height="34.1328" rx="12.5" ry="12.5" style="stroke: #A80036; stroke-width: 1.5;" width="53" x="235" y="20"/><text fill="#000000" font-family="sans-serif" font-size="12" lengthAdjust="spacingAndGlyphs" textLength="33" x="245" y="41.6016">install</text><path d="M185,226.5313 L195,226.5313 C210,226.5313 210,37.0664 225,37.0664 L235,37.0664 " fill="none" style="stroke: #A80036; stroke-width: 1.0;"/><rect fill="#FEFECE" filter="url(#fx7mqd1blis0r)" height="34.1328" rx="12.5" ry="12.5" style="stroke: #A80036; stroke-width: 1.5;" width="79" x="235" y="74.1328"/><text fill="#000000" font-family="sans-serif" font-size="12" lengthAdjust="spacingAndGlyphs" textLength="59" x="245" y="95.7344">instantiate</text><path d="M185,226.5313 L195,226.5313 C210,226.5313 210,91.1992 225,91.1992 L235,91.1992 " fill="none" style="stroke: #A80036; stroke-width: 1.0;"/><rect fill="#FEFECE" filter="url(#fx7mqd1blis0r)" height="34.1328" rx="12.5" ry="12.5" style="stroke: #A80036; stroke-width: 1.5;" width="57" x="235" y="128.2656"/><text fill="#000000" font-family="sans-serif" font-size="12" lengthAdjust="spacingAndGlyphs" textLength="37" x="245" y="149.8672">invoke</text><path d="M185,226.5313 L195,226.5313 C210,226.5313 210,145.332 225,145.332 L235,145.332 " fill="none" style="stroke: #A80036; stroke-width: 1.0;"/><rect fill="#FEFECE" filter="url(#fx7mqd1blis0r)" height="34.1328" rx="12.5" ry="12.5" style="stroke: #A80036; stroke-width: 1.5;" width="69" x="235" y="182.3984"/><text fill="#000000" font-family="sans-serif" font-size="12" lengthAdjust="spacingAndGlyphs" textLength="49" x="245" y="204">package</text><path d="M185,226.5313 L195,226.5313 C210,226.5313 210,199.4648 225,199.4648 L235,199.4648 " fill="none" style="stroke: #A80036; stroke-width: 1.0;"/><rect fill="#FEFECE" filter="url(#fx7mqd1blis0r)" height="34.1328" rx="12.5" ry="12.5" style="stroke: #A80036; stroke-width: 1.5;" width="53" x="235" y="236.5313"/><text fill="#000000" font-family="sans-serif" font-size="12" lengthAdjust="spacingAndGlyphs" textLength="33" x="245" y="258.1328">query</text><path d="M185,226.5313 L195,226.5313 C210,226.5313 210,253.5977 225,253.5977 L235,253.5977 " fill="none" style="stroke: #A80036; stroke-width: 1.0;"/><rect fill="#FEFECE" filter="url(#fx7mqd1blis0r)" height="34.1328" rx="12.5" ry="12.5" style="stroke: #A80036; stroke-width: 1.5;" width="92" x="235" y="290.6641"/><text fill="#000000" font-family="sans-serif" font-size="12" lengthAdjust="spacingAndGlyphs" textLength="72" x="245" y="312.2656">signpackage</text><path d="M185,226.5313 L195,226.5313 C210,226.5313 210,307.7305 225,307.7305 L235,307.7305 " fill="none" style="stroke: #A80036; stroke-width: 1.0;"/><rect fill="#FEFECE" filter="url(#fx7mqd1blis0r)" height="34.1328" rx="12.5" ry="12.5" style="stroke: #A80036; stroke-width: 1.5;" width="69" x="235" y="344.7969"/><text fill="#000000" font-family="sans-serif" font-size="12" lengthAdjust="spacingAndGlyphs" textLength="49" x="245" y="366.3984">upgrade</text><path d="M185,226.5313 L195,226.5313 C210,226.5313 210,361.8633 225,361.8633 L235,361.8633 " fill="none" style="stroke: #A80036; stroke-width: 1.0;"/><rect fill="#FEFECE" filter="url(#fx7mqd1blis0r)" height="34.1328" rx="12.5" ry="12.5" style="stroke: #A80036; stroke-width: 1.5;" width="36" x="235" y="398.9297"/><text fill="#000000" font-family="sans-serif" font-size="12" lengthAdjust="spacingAndGlyphs" textLength="16" x="245" y="420.5313">list</text><path d="M185,226.5313 L195,226.5313 C210,226.5313 210,415.9961 225,415.9961 L235,415.9961 " fill="none" style="stroke: #A80036; stroke-width: 1.0;"/><path d="M57,415.9961 L67,415.9961 C82,415.9961 82,226.5313 97,226.5313 L107,226.5313 " fill="none" style="stroke: #A80036; stroke-width: 1.0;"/><rect fill="#FEFECE" filter="url(#fx7mqd1blis0r)" height="34.1328" rx="12.5" ry="12.5" style="stroke: #A80036; stroke-width: 1.5;" width="64" x="107" y="615.4609"/><text fill="#000000" font-family="sans-serif" font-size="12" lengthAdjust="spacingAndGlyphs" textLength="44" x="117" y="637.0625">channel</text><rect fill="#FEFECE" filter="url(#fx7mqd1blis0r)" height="34.1328" rx="12.5" ry="12.5" style="stroke: #A80036; stroke-width: 1.5;" width="56" x="221" y="453.0625"/><text fill="#000000" font-family="sans-serif" font-size="12" lengthAdjust="spacingAndGlyphs" textLength="36" x="231" y="474.6641">create</text><path d="M171,632.5273 L181,632.5273 C196,632.5273 196,470.1289 211,470.1289 L221,470.1289 " fill="none" style="stroke: #A80036; stroke-width: 1.0;"/><rect fill="#FEFECE" filter="url(#fx7mqd1blis0r)" height="34.1328" rx="12.5" ry="12.5" style="stroke: #A80036; stroke-width: 1.5;" width="48" x="221" y="507.1953"/><text fill="#000000" font-family="sans-serif" font-size="12" lengthAdjust="spacingAndGlyphs" textLength="28" x="231" y="528.7969">fetch</text><path d="M171,632.5273 L181,632.5273 C196,632.5273 196,524.2617 211,524.2617 L221,524.2617 " fill="none" style="stroke: #A80036; stroke-width: 1.0;"/><rect fill="#FEFECE" filter="url(#fx7mqd1blis0r)" height="34.1328" rx="12.5" ry="12.5" style="stroke: #A80036; stroke-width: 1.5;" width="41" x="221" y="561.3281"/><text fill="#000000" font-family="sans-serif" font-size="12" lengthAdjust="spacingAndGlyphs" textLength="21" x="231" y="582.9297">join</text><path d="M171,632.5273 L181,632.5273 C196,632.5273 196,578.3945 211,578.3945 L221,578.3945 " fill="none" style="stroke: #A80036; stroke-width: 1.0;"/><rect fill="#FEFECE" filter="url(#fx7mqd1blis0r)" height="34.1328" rx="12.5" ry="12.5" style="stroke: #A80036; stroke-width: 1.5;" width="36" x="221" y="615.4609"/><text fill="#000000" font-family="sans-serif" font-size="12" lengthAdjust="spacingAndGlyphs" textLength="16" x="231" y="637.0625">list</text><path d="M171,632.5273 L181,632.5273 C196,632.5273 196,632.5273 211,632.5273 L221,632.5273 " fill="none" style="stroke: #A80036; stroke-width: 1.0;"/><rect fill="#FEFECE" filter="url(#fx7mqd1blis0r)" height="34.1328" rx="12.5" ry="12.5" style="stroke: #A80036; stroke-width: 1.5;" width="61" x="221" y="669.5938"/><text fill="#000000" font-family="sans-serif" font-size="12" lengthAdjust="spacingAndGlyphs" textLength="41" x="231" y="691.1953">update</text><path d="M171,632.5273 L181,632.5273 C196,632.5273 196,686.6602 211,686.6602 L221,686.6602 " fill="none" style="stroke: #A80036; stroke-width: 1.0;"/><rect fill="#FEFECE" filter="url(#fx7mqd1blis0r)" height="34.1328" rx="12.5" ry="12.5" style="stroke: #A80036; stroke-width: 1.5;" width="88" x="221" y="723.7266"/><text fill="#000000" font-family="sans-serif" font-size="12" lengthAdjust="spacingAndGlyphs" textLength="68" x="231" y="745.3281">signconfigtx</text><path d="M171,632.5273 L181,632.5273 C196,632.5273 196,740.793 211,740.793 L221,740.793 " fill="none" style="stroke: #A80036; stroke-width: 1.0;"/><rect fill="#FEFECE" filter="url(#fx7mqd1blis0r)" height="34.1328" rx="12.5" ry="12.5" style="stroke: #A80036; stroke-width: 1.5;" width="59" x="221" y="777.8594"/><text fill="#000000" font-family="sans-serif" font-size="12" lengthAdjust="spacingAndGlyphs" textLength="39" x="231" y="799.4609">getinfo</text><path d="M171,632.5273 L181,632.5273 C196,632.5273 196,794.9258 211,794.9258 L221,794.9258 " fill="none" style="stroke: #A80036; stroke-width: 1.0;"/><path d="M57,415.9961 L67,415.9961 C82,415.9961 82,632.5273 97,632.5273 L107,632.5273 " fill="none" style="stroke: #A80036; stroke-width: 1.0;"/><rect fill="#FEFECE" filter="url(#fx7mqd1blis0r)" height="34.1328" rx="12.5" ry="12.5" style="stroke: #A80036; stroke-width: 1.5;" width="73" x="107" y="669.5938"/><text fill="#000000" font-family="sans-serif" font-size="12" lengthAdjust="spacingAndGlyphs" textLength="53" x="117" y="691.1953">clilogging</text><path d="M57,415.9961 L67,415.9961 C82,415.9961 82,686.6602 97,686.6602 L107,686.6602 " fill="none" style="stroke: #A80036; stroke-width: 1.0;"/><rect fill="#FEFECE" filter="url(#fx7mqd1blis0r)" height="34.1328" rx="12.5" ry="12.5" style="stroke: #A80036; stroke-width: 1.5;" width="49" x="107" y="723.7266"/><text fill="#000000" font-family="sans-serif" font-size="12" lengthAdjust="spacingAndGlyphs" textLength="29" x="117" y="745.3281">node</text><path d="M57,415.9961 L67,415.9961 C82,415.9961 82,740.793 97,740.793 L107,740.793 " fill="none" style="stroke: #A80036; stroke-width: 1.0;"/><rect fill="#FEFECE" filter="url(#fx7mqd1blis0r)" height="34.1328" rx="12.5" ry="12.5" style="stroke: #A80036; stroke-width: 1.5;" width="61" x="107" y="777.8594"/><text fill="#000000" font-family="sans-serif" font-size="12" lengthAdjust="spacingAndGlyphs" textLength="41" x="117" y="799.4609">version</text><path d="M57,415.9961 L67,415.9961 C82,415.9961 82,794.9258 97,794.9258 L107,794.9258 " fill="none" style="stroke: #A80036; stroke-width: 1.0;"/><!--
@startmindmap
* peer
** chaincode
*** install
*** instantiate
*** invoke
*** package
*** query
*** signpackage
*** upgrade
*** list
** channel
*** create
*** fetch
*** join
*** list
*** update
*** signconfigtx
*** getinfo
** clilogging
** node
** version
@endmindmap

PlantUML version 1.2019.06(Sat May 25 01:10:25 CST 2019)
(APACHE source distribution)
Java Runtime: Java(TM) SE Runtime Environment
JVM: Java HotSpot(TM) 64-Bit Server VM
Java Version: 1.8.0_101-b13
Operating System: Mac OS X
OS Version: 10.14.5
Default Encoding: UTF-8
Language: en
Country: US
--></g></svg>