<?xml version="1.0" encoding="UTF-8" standalone="no"?><svg xmlns="http://www.w3.org/2000/svg" xmlns:xlink="http://www.w3.org/1999/xlink" contentScriptType="application/ecmascript" contentStyleType="text/css" height="714px" preserveAspectRatio="none" style="width:590px;height:714px;" version="1.1" viewBox="0 0 590 714" width="590px" zoomAndPan="magnify"><defs><filter height="300%" id="f17ec0sch0ezrc" width="300%" x="-1" y="-1"><feGaussianBlur result="blurOut" stdDeviation="2.0"/><feColorMatrix in="blurOut" result="blurOut2" type="matrix" values="0 0 0 0 0 0 0 0 0 0 0 0 0 0 0 0 0 0 .4 0"/><feOffset dx="4.0" dy="4.0" in="blurOut2" result="blurOut3"/><feBlend in="SourceGraphic" in2="blurOut3" mode="normal"/></filter></defs><g><rect fill="#FEFECE" filter="url(#f17ec0sch0ezrc)" height="34.1328" rx="12.5" ry="12.5" style="stroke: #A80036; stroke-width: 1.5;" width="47" x="262" y="344.7969"/><text fill="#000000" font-family="sans-serif" font-size="12" lengthAdjust="spacingAndGlyphs" textLength="27" x="272" y="366.3984">peer</text><rect fill="#FEFECE" filter="url(#f17ec0sch0ezrc)" height="34.1328" rx="12.5" ry="12.5" style="stroke: #A80036; stroke-width: 1.5;" width="78" x="359" y="209.4648"/><text fill="#000000" font-family="sans-serif" font-size="12" lengthAdjust="spacingAndGlyphs" textLength="58" x="369" y="231.0664">chaincode</text><rect fill="#FEFECE" filter="url(#f17ec0sch0ezrc)" height="34.1328" rx="12.5" ry="12.5" style="stroke: #A80036; stroke-width: 1.5;" width="53" x="487" y="20"/><text fill="#000000" font-family="sans-serif" font-size="12" lengthAdjust="spacingAndGlyphs" textLength="33" x="497" y="41.6016">install</text><path d="M437,226.5313 L447,226.5313 C462,226.5313 462,37.0664 477,37.0664 L487,37.0664 " fill="none" style="stroke: #A80036; stroke-width: 1.0;"/><rect fill="#FEFECE" filter="url(#f17ec0sch0ezrc)" height="34.1328" rx="12.5" ry="12.5" style="stroke: #A80036; stroke-width: 1.5;" width="79" x="487" y="74.1328"/><text fill="#000000" font-family="sans-serif" font-size="12" lengthAdjust="spacingAndGlyphs" textLength="59" x="497" y="95.7344">instantiate</text><path d="M437,226.5313 L447,226.5313 C462,226.5313 462,91.1992 477,91.1992 L487,91.1992 " fill="none" style="stroke: #A80036; stroke-width: 1.0;"/><rect fill="#FEFECE" filter="url(#f17ec0sch0ezrc)" height="34.1328" rx="12.5" ry="12.5" style="stroke: #A80036; stroke-width: 1.5;" width="57" x="487" y="128.2656"/><text fill="#000000" font-family="sans-serif" font-size="12" lengthAdjust="spacingAndGlyphs" textLength="37" x="497" y="149.8672">invoke</text><path d="M437,226.5313 L447,226.5313 C462,226.5313 462,145.332 477,145.332 L487,145.332 " fill="none" style="stroke: #A80036; stroke-width: 1.0;"/><rect fill="#FEFECE" filter="url(#f17ec0sch0ezrc)" height="34.1328" rx="12.5" ry="12.5" style="stroke: #A80036; stroke-width: 1.5;" width="69" x="487" y="182.3984"/><text fill="#000000" font-family="sans-serif" font-size="12" lengthAdjust="spacingAndGlyphs" textLength="49" x="497" y="204">package</text><path d="M437,226.5313 L447,226.5313 C462,226.5313 462,199.4648 477,199.4648 L487,199.4648 " fill="none" style="stroke: #A80036; stroke-width: 1.0;"/><rect fill="#FEFECE" filter="url(#f17ec0sch0ezrc)" height="34.1328" rx="12.5" ry="12.5" style="stroke: #A80036; stroke-width: 1.5;" width="53" x="487" y="236.5313"/><text fill="#000000" font-family="sans-serif" font-size="12" lengthAdjust="spacingAndGlyphs" textLength="33" x="497" y="258.1328">query</text><path d="M437,226.5313 L447,226.5313 C462,226.5313 462,253.5977 477,253.5977 L487,253.5977 " fill="none" style="stroke: #A80036; stroke-width: 1.0;"/><rect fill="#FEFECE" filter="url(#f17ec0sch0ezrc)" height="34.1328" rx="12.5" ry="12.5" style="stroke: #A80036; stroke-width: 1.5;" width="92" x="487" y="290.6641"/><text fill="#000000" font-family="sans-serif" font-size="12" lengthAdjust="spacingAndGlyphs" textLength="72" x="497" y="312.2656">signpackage</text><path d="M437,226.5313 L447,226.5313 C462,226.5313 462,307.7305 477,307.7305 L487,307.7305 " fill="none" style="stroke: #A80036; stroke-width: 1.0;"/><rect fill="#FEFECE" filter="url(#f17ec0sch0ezrc)" height="34.1328" rx="12.5" ry="12.5" style="stroke: #A80036; stroke-width: 1.5;" width="69" x="487" y="344.7969"/><text fill="#000000" font-family="sans-serif" font-size="12" lengthAdjust="spacingAndGlyphs" textLength="49" x="497" y="366.3984">upgrade</text><path d="M437,226.5313 L447,226.5313 C462,226.5313 462,361.8633 477,361.8633 L487,361.8633 " fill="none" style="stroke: #A80036; stroke-width: 1.0;"/><rect fill="#FEFECE" filter="url(#f17ec0sch0ezrc)" height="34.1328" rx="12.5" ry="12.5" style="stroke: #A80036; stroke-width: 1.5;" width="36" x="487" y="398.9297"/><text fill="#000000" font-family="sans-serif" font-size="12" lengthAdjust="spacingAndGlyphs" textLength="16" x="497" y="420.5313">list</text><path d="M437,226.5313 L447,226.5313 C462,226.5313 462,415.9961 477,415.9961 L487,415.9961 " fill="none" style="stroke: #A80036; stroke-width: 1.0;"/><path d="M309,361.8633 L319,361.8633 C334,361.8633 334,226.5313 349,226.5313 L359,226.5313 " fill="none" style="stroke: #A80036; stroke-width: 1.0;"/><rect fill="#FEFECE" filter="url(#f17ec0sch0ezrc)" height="34.1328" rx="12.5" ry="12.5" style="stroke: #A80036; stroke-width: 1.5;" width="73" x="359" y="561.3281"/><text fill="#000000" font-family="sans-serif" font-size="12" lengthAdjust="spacingAndGlyphs" textLength="53" x="369" y="582.9297">clilogging</text><rect fill="#FEFECE" filter="url(#f17ec0sch0ezrc)" height="34.1328" rx="12.5" ry="12.5" style="stroke: #A80036; stroke-width: 1.5;" width="67" x="482" y="453.0625"/><text fill="#000000" font-family="sans-serif" font-size="12" lengthAdjust="spacingAndGlyphs" textLength="47" x="492" y="474.6641">getLevel</text><path d="M432,578.3945 L442,578.3945 C457,578.3945 457,470.1289 472,470.1289 L482,470.1289 " fill="none" style="stroke: #A80036; stroke-width: 1.0;"/><rect fill="#FEFECE" filter="url(#f17ec0sch0ezrc)" height="34.1328" rx="12.5" ry="12.5" style="stroke: #A80036; stroke-width: 1.5;" width="66" x="482" y="507.1953"/><text fill="#000000" font-family="sans-serif" font-size="12" lengthAdjust="spacingAndGlyphs" textLength="46" x="492" y="528.7969">setLevel</text><path d="M432,578.3945 L442,578.3945 C457,578.3945 457,524.2617 472,524.2617 L482,524.2617 " fill="none" style="stroke: #A80036; stroke-width: 1.0;"/><rect fill="#FEFECE" filter="url(#f17ec0sch0ezrc)" height="34.1328" rx="12.5" ry="12.5" style="stroke: #A80036; stroke-width: 1.5;" width="89" x="482" y="561.3281"/><text fill="#000000" font-family="sans-serif" font-size="12" lengthAdjust="spacingAndGlyphs" textLength="69" x="492" y="582.9297">revertLevels</text><path d="M432,578.3945 L442,578.3945 C457,578.3945 457,578.3945 472,578.3945 L482,578.3945 " fill="none" style="stroke: #A80036; stroke-width: 1.0;"/><rect fill="#FEFECE" filter="url(#f17ec0sch0ezrc)" height="34.1328" rx="12.5" ry="12.5" style="stroke: #A80036; stroke-width: 1.5;" width="85" x="482" y="615.4609"/><text fill="#000000" font-family="sans-serif" font-size="12" lengthAdjust="spacingAndGlyphs" textLength="65" x="492" y="637.0625">getLogSpec</text><path d="M432,578.3945 L442,578.3945 C457,578.3945 457,632.5273 472,632.5273 L482,632.5273 " fill="none" style="stroke: #A80036; stroke-width: 1.0;"/><rect fill="#FEFECE" filter="url(#f17ec0sch0ezrc)" height="34.1328" rx="12.5" ry="12.5" style="stroke: #A80036; stroke-width: 1.5;" width="84" x="482" y="669.5938"/><text fill="#000000" font-family="sans-serif" font-size="12" lengthAdjust="spacingAndGlyphs" textLength="64" x="492" y="691.1953">setLogSpec</text><path d="M432,578.3945 L442,578.3945 C457,578.3945 457,686.6602 472,686.6602 L482,686.6602 " fill="none" style="stroke: #A80036; stroke-width: 1.0;"/><path d="M309,361.8633 L319,361.8633 C334,361.8633 334,578.3945 349,578.3945 L359,578.3945 " fill="none" style="stroke: #A80036; stroke-width: 1.0;"/><rect fill="#FEFECE" filter="url(#f17ec0sch0ezrc)" height="34.1328" rx="12.5" ry="12.5" style="stroke: #A80036; stroke-width: 1.5;" width="49" x="359" y="615.4609"/><text fill="#000000" font-family="sans-serif" font-size="12" lengthAdjust="spacingAndGlyphs" textLength="29" x="369" y="637.0625">node</text><path d="M309,361.8633 L319,361.8633 C334,361.8633 334,632.5273 349,632.5273 L359,632.5273 " fill="none" style="stroke: #A80036; stroke-width: 1.0;"/><rect fill="#FEFECE" filter="url(#f17ec0sch0ezrc)" height="34.1328" rx="12.5" ry="12.5" style="stroke: #A80036; stroke-width: 1.5;" width="61" x="359" y="669.5938"/><text fill="#000000" font-family="sans-serif" font-size="12" lengthAdjust="spacingAndGlyphs" textLength="41" x="369" y="691.1953">version</text><path d="M309,361.8633 L319,361.8633 C334,361.8633 334,686.6602 349,686.6602 L359,686.6602 " fill="none" style="stroke: #A80036; stroke-width: 1.0;"/><rect fill="#FEFECE" filter="url(#f17ec0sch0ezrc)" height="34.1328" rx="12.5" ry="12.5" style="stroke: #A80036; stroke-width: 1.5;" width="64" x="148" y="344.7969"/><text fill="#000000" font-family="sans-serif" font-size="12" lengthAdjust="spacingAndGlyphs" textLength="44" x="158" y="366.3984">channel</text><rect fill="#FEFECE" filter="url(#f17ec0sch0ezrc)" height="34.1328" rx="12.5" ry="12.5" style="stroke: #A80036; stroke-width: 1.5;" width="56" x="42" y="182.3984"/><text fill="#000000" font-family="sans-serif" font-size="12" lengthAdjust="spacingAndGlyphs" textLength="36" x="52" y="204">create</text><path d="M148,361.8633 L138,361.8633 C123,361.8633 123,199.4648 108,199.4648 L98,199.4648 " fill="none" style="stroke: #A80036; stroke-width: 1.0;"/><rect fill="#FEFECE" filter="url(#f17ec0sch0ezrc)" height="34.1328" rx="12.5" ry="12.5" style="stroke: #A80036; stroke-width: 1.5;" width="48" x="50" y="236.5313"/><text fill="#000000" font-family="sans-serif" font-size="12" lengthAdjust="spacingAndGlyphs" textLength="28" x="60" y="258.1328">fetch</text><path d="M148,361.8633 L138,361.8633 C123,361.8633 123,253.5977 108,253.5977 L98,253.5977 " fill="none" style="stroke: #A80036; stroke-width: 1.0;"/><rect fill="#FEFECE" filter="url(#f17ec0sch0ezrc)" height="34.1328" rx="12.5" ry="12.5" style="stroke: #A80036; stroke-width: 1.5;" width="41" x="57" y="290.6641"/><text fill="#000000" font-family="sans-serif" font-size="12" lengthAdjust="spacingAndGlyphs" textLength="21" x="67" y="312.2656">join</text><path d="M148,361.8633 L138,361.8633 C123,361.8633 123,307.7305 108,307.7305 L98,307.7305 " fill="none" style="stroke: #A80036; stroke-width: 1.0;"/><rect fill="#FEFECE" filter="url(#f17ec0sch0ezrc)" height="34.1328" rx="12.5" ry="12.5" style="stroke: #A80036; stroke-width: 1.5;" width="36" x="62" y="344.7969"/><text fill="#000000" font-family="sans-serif" font-size="12" lengthAdjust="spacingAndGlyphs" textLength="16" x="72" y="366.3984">list</text><path d="M148,361.8633 L138,361.8633 C123,361.8633 123,361.8633 108,361.8633 L98,361.8633 " fill="none" style="stroke: #A80036; stroke-width: 1.0;"/><rect fill="#FEFECE" filter="url(#f17ec0sch0ezrc)" height="34.1328" rx="12.5" ry="12.5" style="stroke: #A80036; stroke-width: 1.5;" width="61" x="37" y="398.9297"/><text fill="#000000" font-family="sans-serif" font-size="12" lengthAdjust="spacingAndGlyphs" textLength="41" x="47" y="420.5313">update</text><path d="M148,361.8633 L138,361.8633 C123,361.8633 123,415.9961 108,415.9961 L98,415.9961 " fill="none" style="stroke: #A80036; stroke-width: 1.0;"/><rect fill="#FEFECE" filter="url(#f17ec0sch0ezrc)" height="34.1328" rx="12.5" ry="12.5" style="stroke: #A80036; stroke-width: 1.5;" width="88" x="10" y="453.0625"/><text fill="#000000" font-family="sans-serif" font-size="12" lengthAdjust="spacingAndGlyphs" textLength="68" x="20" y="474.6641">signconfigtx</text><path d="M148,361.8633 L138,361.8633 C123,361.8633 123,470.1289 108,470.1289 L98,470.1289 " fill="none" style="stroke: #A80036; stroke-width: 1.0;"/><rect fill="#FEFECE" filter="url(#f17ec0sch0ezrc)" height="34.1328" rx="12.5" ry="12.5" style="stroke: #A80036; stroke-width: 1.5;" width="59" x="39" y="507.1953"/><text fill="#000000" font-family="sans-serif" font-size="12" lengthAdjust="spacingAndGlyphs" textLength="39" x="49" y="528.7969">getinfo</text><path d="M148,361.8633 L138,361.8633 C123,361.8633 123,524.2617 108,524.2617 L98,524.2617 " fill="none" style="stroke: #A80036; stroke-width: 1.0;"/><path d="M262,361.8633 L252,361.8633 C237,361.8633 237,361.8633 222,361.8633 L212,361.8633 " fill="none" style="stroke: #A80036; stroke-width: 1.0;"/><!--
@startmindmap
+ peer
++ chaincode
+++ install
+++ instantiate
+++ invoke
+++ package
+++ query
+++ signpackage
+++ upgrade
+++ list
- - channel
- - - create
- - - fetch
- - - join
- - - list
- - - update
- - - signconfigtx
- - - getinfo
++ clilogging
+++ getLevel
+++ setLevel
+++ revertLevels
+++ getLogSpec
+++ setLogSpec
++ node
++ version
@endmindmap

PlantUML version 1.2019.06(Sat May 25 01:10:25 CST 2019)
(APACHE source distribution)
Java Runtime: Java(TM) SE Runtime Environment
JVM: Java HotSpot(TM) 64-Bit Server VM
Java Version: 1.8.0_101-b13
Operating System: Mac OS X
OS Version: 10.14.5
Default Encoding: UTF-8
Language: en
Country: US
--></g></svg>