<?xml version="1.0" encoding="UTF-8" standalone="no"?><svg xmlns="http://www.w3.org/2000/svg" xmlns:xlink="http://www.w3.org/1999/xlink" contentScriptType="application/ecmascript" contentStyleType="text/css" height="281px" preserveAspectRatio="none" style="width:196px;height:281px;" version="1.1" viewBox="0 0 196 281" width="196px" zoomAndPan="magnify"><defs><filter height="300%" id="f1uzm8tuxo7rkc" width="300%" x="-1" y="-1"><feGaussianBlur result="blurOut" stdDeviation="2.0"/><feColorMatrix in="blurOut" result="blurOut2" type="matrix" values="0 0 0 0 0 0 0 0 0 0 0 0 0 0 0 0 0 0 .4 0"/><feOffset dx="4.0" dy="4.0" in="blurOut2" result="blurOut3"/><feBlend in="SourceGraphic" in2="blurOut3" mode="normal"/></filter></defs><g><rect fill="#FEFECE" filter="url(#f1uzm8tuxo7rkc)" height="34.1328" rx="12.5" ry="12.5" style="stroke: #A80036; stroke-width: 1.5;" width="47" x="10" y="128.2656"/><text fill="#000000" font-family="sans-serif" font-size="12" lengthAdjust="spacingAndGlyphs" textLength="27" x="20" y="149.8672">peer</text><rect fill="#FEFECE" filter="url(#f1uzm8tuxo7rkc)" height="34.1328" rx="12.5" ry="12.5" style="stroke: #A80036; stroke-width: 1.5;" width="78" x="107" y="20"/><text fill="#000000" font-family="sans-serif" font-size="12" lengthAdjust="spacingAndGlyphs" textLength="58" x="117" y="41.6016">chaincode</text><path d="M57,145.332 L67,145.332 C82,145.332 82,37.0664 97,37.0664 L107,37.0664 " fill="none" style="stroke: #A80036; stroke-width: 1.0;"/><rect fill="#FEFECE" filter="url(#f1uzm8tuxo7rkc)" height="34.1328" rx="12.5" ry="12.5" style="stroke: #A80036; stroke-width: 1.5;" width="64" x="107" y="74.1328"/><text fill="#000000" font-family="sans-serif" font-size="12" lengthAdjust="spacingAndGlyphs" textLength="44" x="117" y="95.7344">channel</text><path d="M57,145.332 L67,145.332 C82,145.332 82,91.1992 97,91.1992 L107,91.1992 " fill="none" style="stroke: #A80036; stroke-width: 1.0;"/><rect fill="#FEFECE" filter="url(#f1uzm8tuxo7rkc)" height="34.1328" rx="12.5" ry="12.5" style="stroke: #A80036; stroke-width: 1.5;" width="73" x="107" y="128.2656"/><text fill="#000000" font-family="sans-serif" font-size="12" lengthAdjust="spacingAndGlyphs" textLength="53" x="117" y="149.8672">clilogging</text><path d="M57,145.332 L67,145.332 C82,145.332 82,145.332 97,145.332 L107,145.332 " fill="none" style="stroke: #A80036; stroke-width: 1.0;"/><rect fill="#FEFECE" filter="url(#f1uzm8tuxo7rkc)" height="34.1328" rx="12.5" ry="12.5" style="stroke: #A80036; stroke-width: 1.5;" width="49" x="107" y="182.3984"/><text fill="#000000" font-family="sans-serif" font-size="12" lengthAdjust="spacingAndGlyphs" textLength="29" x="117" y="204">node</text><path d="M57,145.332 L67,145.332 C82,145.332 82,199.4648 97,199.4648 L107,199.4648 " fill="none" style="stroke: #A80036; stroke-width: 1.0;"/><rect fill="#FEFECE" filter="url(#f1uzm8tuxo7rkc)" height="34.1328" rx="12.5" ry="12.5" style="stroke: #A80036; stroke-width: 1.5;" width="61" x="107" y="236.5313"/><text fill="#000000" font-family="sans-serif" font-size="12" lengthAdjust="spacingAndGlyphs" textLength="41" x="117" y="258.1328">version</text><path d="M57,145.332 L67,145.332 C82,145.332 82,253.5977 97,253.5977 L107,253.5977 " fill="none" style="stroke: #A80036; stroke-width: 1.0;"/><!--
@startmindmap
* peer
** chaincode
** channel
** clilogging
** node
** version
@endmindmap

PlantUML version 1.2019.06(Sat May 25 01:10:25 CST 2019)
(APACHE source distribution)
Java Runtime: Java(TM) SE Runtime Environment
JVM: Java HotSpot(TM) 64-Bit Server VM
Java Version: 1.8.0_101-b13
Operating System: Mac OS X
OS Version: 10.14.5
Default Encoding: UTF-8
Language: en
Country: US
--></g></svg>