<?xml version="1.0" encoding="UTF-8" standalone="no"?><svg xmlns="http://www.w3.org/2000/svg" xmlns:xlink="http://www.w3.org/1999/xlink" contentScriptType="application/ecmascript" contentStyleType="text/css" height="471px" preserveAspectRatio="none" style="width:338px;height:471px;" version="1.1" viewBox="0 0 338 471" width="338px" zoomAndPan="magnify"><defs><filter height="300%" id="f16crzh9a9eln8" width="300%" x="-1" y="-1"><feGaussianBlur result="blurOut" stdDeviation="2.0"/><feColorMatrix in="blurOut" result="blurOut2" type="matrix" values="0 0 0 0 0 0 0 0 0 0 0 0 0 0 0 0 0 0 .4 0"/><feOffset dx="4.0" dy="4.0" in="blurOut2" result="blurOut3"/><feBlend in="SourceGraphic" in2="blurOut3" mode="normal"/></filter></defs><g><rect fill="#FEFECE" filter="url(#f16crzh9a9eln8)" height="34.1328" rx="12.5" ry="12.5" style="stroke: #A80036; stroke-width: 1.5;" width="47" x="10" y="222.998"/><text fill="#000000" font-family="sans-serif" font-size="12" lengthAdjust="spacingAndGlyphs" textLength="27" x="20" y="244.5996">peer</text><rect fill="#FEFECE" filter="url(#f16crzh9a9eln8)" height="34.1328" rx="12.5" ry="12.5" style="stroke: #A80036; stroke-width: 1.5;" width="78" x="107" y="209.4648"/><text fill="#000000" font-family="sans-serif" font-size="12" lengthAdjust="spacingAndGlyphs" textLength="58" x="117" y="231.0664">chaincode</text><rect fill="#FEFECE" filter="url(#f16crzh9a9eln8)" height="34.1328" rx="12.5" ry="12.5" style="stroke: #A80036; stroke-width: 1.5;" width="53" x="235" y="20"/><text fill="#000000" font-family="sans-serif" font-size="12" lengthAdjust="spacingAndGlyphs" textLength="33" x="245" y="41.6016">install</text><path d="M185,226.5313 L195,226.5313 C210,226.5313 210,37.0664 225,37.0664 L235,37.0664 " fill="none" style="stroke: #A80036; stroke-width: 1.0;"/><rect fill="#FEFECE" filter="url(#f16crzh9a9eln8)" height="34.1328" rx="12.5" ry="12.5" style="stroke: #A80036; stroke-width: 1.5;" width="79" x="235" y="74.1328"/><text fill="#000000" font-family="sans-serif" font-size="12" lengthAdjust="spacingAndGlyphs" textLength="59" x="245" y="95.7344">instantiate</text><path d="M185,226.5313 L195,226.5313 C210,226.5313 210,91.1992 225,91.1992 L235,91.1992 " fill="none" style="stroke: #A80036; stroke-width: 1.0;"/><rect fill="#FEFECE" filter="url(#f16crzh9a9eln8)" height="34.1328" rx="12.5" ry="12.5" style="stroke: #A80036; stroke-width: 1.5;" width="57" x="235" y="128.2656"/><text fill="#000000" font-family="sans-serif" font-size="12" lengthAdjust="spacingAndGlyphs" textLength="37" x="245" y="149.8672">invoke</text><path d="M185,226.5313 L195,226.5313 C210,226.5313 210,145.332 225,145.332 L235,145.332 " fill="none" style="stroke: #A80036; stroke-width: 1.0;"/><rect fill="#FEFECE" filter="url(#f16crzh9a9eln8)" height="34.1328" rx="12.5" ry="12.5" style="stroke: #A80036; stroke-width: 1.5;" width="69" x="235" y="182.3984"/><text fill="#000000" font-family="sans-serif" font-size="12" lengthAdjust="spacingAndGlyphs" textLength="49" x="245" y="204">package</text><path d="M185,226.5313 L195,226.5313 C210,226.5313 210,199.4648 225,199.4648 L235,199.4648 " fill="none" style="stroke: #A80036; stroke-width: 1.0;"/><rect fill="#FEFECE" filter="url(#f16crzh9a9eln8)" height="34.1328" rx="12.5" ry="12.5" style="stroke: #A80036; stroke-width: 1.5;" width="53" x="235" y="236.5313"/><text fill="#000000" font-family="sans-serif" font-size="12" lengthAdjust="spacingAndGlyphs" textLength="33" x="245" y="258.1328">query</text><path d="M185,226.5313 L195,226.5313 C210,226.5313 210,253.5977 225,253.5977 L235,253.5977 " fill="none" style="stroke: #A80036; stroke-width: 1.0;"/><rect fill="#FEFECE" filter="url(#f16crzh9a9eln8)" height="34.1328" rx="12.5" ry="12.5" style="stroke: #A80036; stroke-width: 1.5;" width="92" x="235" y="290.6641"/><text fill="#000000" font-family="sans-serif" font-size="12" lengthAdjust="spacingAndGlyphs" textLength="72" x="245" y="312.2656">signpackage</text><path d="M185,226.5313 L195,226.5313 C210,226.5313 210,307.7305 225,307.7305 L235,307.7305 " fill="none" style="stroke: #A80036; stroke-width: 1.0;"/><rect fill="#FEFECE" filter="url(#f16crzh9a9eln8)" height="34.1328" rx="12.5" ry="12.5" style="stroke: #A80036; stroke-width: 1.5;" width="69" x="235" y="344.7969"/><text fill="#000000" font-family="sans-serif" font-size="12" lengthAdjust="spacingAndGlyphs" textLength="49" x="245" y="366.3984">upgrade</text><path d="M185,226.5313 L195,226.5313 C210,226.5313 210,361.8633 225,361.8633 L235,361.8633 " fill="none" style="stroke: #A80036; stroke-width: 1.0;"/><rect fill="#FEFECE" filter="url(#f16crzh9a9eln8)" height="34.1328" rx="12.5" ry="12.5" style="stroke: #A80036; stroke-width: 1.5;" width="36" x="235" y="398.9297"/><text fill="#000000" font-family="sans-serif" font-size="12" lengthAdjust="spacingAndGlyphs" textLength="16" x="245" y="420.5313">list</text><path d="M185,226.5313 L195,226.5313 C210,226.5313 210,415.9961 225,415.9961 L235,415.9961 " fill="none" style="stroke: #A80036; stroke-width: 1.0;"/><path d="M57,240.0645 L67,240.0645 C82,240.0645 82,226.5313 97,226.5313 L107,226.5313 " fill="none" style="stroke: #A80036; stroke-width: 1.0;"/><rect fill="#FEFECE" filter="url(#f16crzh9a9eln8)" height="34.1328" rx="12.5" ry="12.5" style="stroke: #A80036; stroke-width: 1.5;" width="64" x="107" y="263.5977"/><text fill="#000000" font-family="sans-serif" font-size="12" lengthAdjust="spacingAndGlyphs" textLength="44" x="117" y="285.1992">channel</text><path d="M57,240.0645 L67,240.0645 C82,240.0645 82,280.6641 97,280.6641 L107,280.6641 " fill="none" style="stroke: #A80036; stroke-width: 1.0;"/><rect fill="#FEFECE" filter="url(#f16crzh9a9eln8)" height="34.1328" rx="12.5" ry="12.5" style="stroke: #A80036; stroke-width: 1.5;" width="73" x="107" y="317.7305"/><text fill="#000000" font-family="sans-serif" font-size="12" lengthAdjust="spacingAndGlyphs" textLength="53" x="117" y="339.332">clilogging</text><path d="M57,240.0645 L67,240.0645 C82,240.0645 82,334.7969 97,334.7969 L107,334.7969 " fill="none" style="stroke: #A80036; stroke-width: 1.0;"/><rect fill="#FEFECE" filter="url(#f16crzh9a9eln8)" height="34.1328" rx="12.5" ry="12.5" style="stroke: #A80036; stroke-width: 1.5;" width="49" x="107" y="371.8633"/><text fill="#000000" font-family="sans-serif" font-size="12" lengthAdjust="spacingAndGlyphs" textLength="29" x="117" y="393.4648">node</text><path d="M57,240.0645 L67,240.0645 C82,240.0645 82,388.9297 97,388.9297 L107,388.9297 " fill="none" style="stroke: #A80036; stroke-width: 1.0;"/><rect fill="#FEFECE" filter="url(#f16crzh9a9eln8)" height="34.1328" rx="12.5" ry="12.5" style="stroke: #A80036; stroke-width: 1.5;" width="61" x="107" y="425.9961"/><text fill="#000000" font-family="sans-serif" font-size="12" lengthAdjust="spacingAndGlyphs" textLength="41" x="117" y="447.5977">version</text><path d="M57,240.0645 L67,240.0645 C82,240.0645 82,443.0625 97,443.0625 L107,443.0625 " fill="none" style="stroke: #A80036; stroke-width: 1.0;"/><!--
@startmindmap
* peer
** chaincode
*** install
*** instantiate
*** invoke
*** package
*** query
*** signpackage
*** upgrade
*** list
** channel
** clilogging
** node
** version
@endmindmap

PlantUML version 1.2019.06(Sat May 25 01:10:25 CST 2019)
(APACHE source distribution)
Java Runtime: Java(TM) SE Runtime Environment
JVM: Java HotSpot(TM) 64-Bit Server VM
Java Version: 1.8.0_101-b13
Operating System: Mac OS X
OS Version: 10.14.5
Default Encoding: UTF-8
Language: en
Country: US
--></g></svg>