<?xml version="1.0" encoding="UTF-8" standalone="no"?><svg xmlns="http://www.w3.org/2000/svg" xmlns:xlink="http://www.w3.org/1999/xlink" contentScriptType="application/ecmascript" contentStyleType="text/css" height="405px" preserveAspectRatio="none" style="width:496px;height:405px;" version="1.1" viewBox="0 0 496 405" width="496px" zoomAndPan="magnify"><defs><filter height="300%" id="fak0t695auzzh" width="300%" x="-1" y="-1"><feGaussianBlur result="blurOut" stdDeviation="2.0"/><feColorMatrix in="blurOut" result="blurOut2" type="matrix" values="0 0 0 0 0 0 0 0 0 0 0 0 0 0 0 0 0 0 .4 0"/><feOffset dx="4.0" dy="4.0" in="blurOut2" result="blurOut3"/><feBlend in="SourceGraphic" in2="blurOut3" mode="normal"/></filter></defs><g><rect fill="#DDDDDD" height="390.5293" style="stroke: #A80036; stroke-width: 1.0;" width="157" x="84" y="4"/><text fill="#000000" font-family="sans-serif" font-size="13" font-weight="bold" lengthAdjust="spacingAndGlyphs" textLength="111" x="107" y="16.5684">endorsing peers</text><rect fill="#DDDDDD" height="390.5293" style="stroke: #A80036; stroke-width: 1.0;" width="125" x="360" y="4"/><text fill="#000000" font-family="sans-serif" font-size="13" font-weight="bold" lengthAdjust="spacingAndGlyphs" textLength="119" x="363" y="16.5684">committing peers</text><rect fill="#FFFFFF" filter="url(#fak0t695auzzh)" height="59.3105" style="stroke: #000000; stroke-width: 2.0;" width="234" x="13" y="75.7988"/><rect fill="#FFFFFF" filter="url(#fak0t695auzzh)" height="59.3105" style="stroke: #000000; stroke-width: 2.0;" width="234" x="13" y="149.1094"/><rect fill="#FFFFFF" filter="url(#fak0t695auzzh)" height="87.3105" style="stroke: #000000; stroke-width: 2.0;" width="404.5" x="78" y="251.7305"/><line style="stroke: #A80036; stroke-width: 1.0; stroke-dasharray: 5.0,5.0;" x1="50" x2="50" y1="58.7988" y2="356.041"/><line style="stroke: #A80036; stroke-width: 1.0; stroke-dasharray: 5.0,5.0;" x1="109" x2="109" y1="58.7988" y2="356.041"/><line style="stroke: #A80036; stroke-width: 1.0; stroke-dasharray: 5.0,5.0;" x1="162" x2="162" y1="58.7988" y2="356.041"/><line style="stroke: #A80036; stroke-width: 1.0; stroke-dasharray: 5.0,5.0;" x1="215" x2="215" y1="58.7988" y2="356.041"/><line style="stroke: #A80036; stroke-width: 1.0; stroke-dasharray: 5.0,5.0;" x1="300" x2="300" y1="58.7988" y2="356.041"/><line style="stroke: #A80036; stroke-width: 1.0; stroke-dasharray: 5.0,5.0;" x1="394.5" x2="394.5" y1="58.7988" y2="356.041"/><line style="stroke: #A80036; stroke-width: 1.0; stroke-dasharray: 5.0,5.0;" x1="449.5" x2="449.5" y1="58.7988" y2="356.041"/><rect fill="#FEFECE" filter="url(#fak0t695auzzh)" height="30.4883" style="stroke: #A80036; stroke-width: 1.5;" width="51" x="23" y="23.3105"/><text fill="#000000" font-family="sans-serif" font-size="14" lengthAdjust="spacingAndGlyphs" textLength="37" x="30" y="43.8457">client</text><rect fill="#FEFECE" filter="url(#fak0t695auzzh)" height="30.4883" style="stroke: #A80036; stroke-width: 1.5;" width="51" x="23" y="355.041"/><text fill="#000000" font-family="sans-serif" font-size="14" lengthAdjust="spacingAndGlyphs" textLength="37" x="30" y="375.5762">client</text><rect fill="#FEFECE" filter="url(#fak0t695auzzh)" height="30.4883" style="stroke: #A80036; stroke-width: 1.5;" width="39" x="88" y="23.3105"/><text fill="#000000" font-family="sans-serif" font-size="14" lengthAdjust="spacingAndGlyphs" textLength="25" x="95" y="43.8457">EP1</text><rect fill="#FEFECE" filter="url(#fak0t695auzzh)" height="30.4883" style="stroke: #A80036; stroke-width: 1.5;" width="39" x="88" y="355.041"/><text fill="#000000" font-family="sans-serif" font-size="14" lengthAdjust="spacingAndGlyphs" textLength="25" x="95" y="375.5762">EP1</text><rect fill="#FEFECE" filter="url(#fak0t695auzzh)" height="30.4883" style="stroke: #A80036; stroke-width: 1.5;" width="39" x="141" y="23.3105"/><text fill="#000000" font-family="sans-serif" font-size="14" lengthAdjust="spacingAndGlyphs" textLength="25" x="148" y="43.8457">EP2</text><rect fill="#FEFECE" filter="url(#fak0t695auzzh)" height="30.4883" style="stroke: #A80036; stroke-width: 1.5;" width="39" x="141" y="355.041"/><text fill="#000000" font-family="sans-serif" font-size="14" lengthAdjust="spacingAndGlyphs" textLength="25" x="148" y="375.5762">EP2</text><rect fill="#FEFECE" filter="url(#fak0t695auzzh)" height="30.4883" style="stroke: #A80036; stroke-width: 1.5;" width="39" x="194" y="23.3105"/><text fill="#000000" font-family="sans-serif" font-size="14" lengthAdjust="spacingAndGlyphs" textLength="25" x="201" y="43.8457">EP3</text><rect fill="#FEFECE" filter="url(#fak0t695auzzh)" height="30.4883" style="stroke: #A80036; stroke-width: 1.5;" width="39" x="194" y="355.041"/><text fill="#000000" font-family="sans-serif" font-size="14" lengthAdjust="spacingAndGlyphs" textLength="25" x="201" y="375.5762">EP3</text><rect fill="#FEFECE" filter="url(#fak0t695auzzh)" height="30.4883" style="stroke: #A80036; stroke-width: 1.5;" width="103" x="247" y="23.3105"/><text fill="#000000" font-family="sans-serif" font-size="14" lengthAdjust="spacingAndGlyphs" textLength="89" x="254" y="43.8457">order service</text><rect fill="#FEFECE" filter="url(#fak0t695auzzh)" height="30.4883" style="stroke: #A80036; stroke-width: 1.5;" width="103" x="247" y="355.041"/><text fill="#000000" font-family="sans-serif" font-size="14" lengthAdjust="spacingAndGlyphs" textLength="89" x="254" y="375.5762">order service</text><rect fill="#FEFECE" filter="url(#fak0t695auzzh)" height="30.4883" style="stroke: #A80036; stroke-width: 1.5;" width="41" x="372.5" y="23.3105"/><text fill="#000000" font-family="sans-serif" font-size="14" lengthAdjust="spacingAndGlyphs" textLength="27" x="379.5" y="43.8457">CP1</text><rect fill="#FEFECE" filter="url(#fak0t695auzzh)" height="30.4883" style="stroke: #A80036; stroke-width: 1.5;" width="41" x="372.5" y="355.041"/><text fill="#000000" font-family="sans-serif" font-size="14" lengthAdjust="spacingAndGlyphs" textLength="27" x="379.5" y="375.5762">CP1</text><rect fill="#FEFECE" filter="url(#fak0t695auzzh)" height="30.4883" style="stroke: #A80036; stroke-width: 1.5;" width="41" x="427.5" y="23.3105"/><text fill="#000000" font-family="sans-serif" font-size="14" lengthAdjust="spacingAndGlyphs" textLength="27" x="434.5" y="43.8457">CP2</text><rect fill="#FEFECE" filter="url(#fak0t695auzzh)" height="30.4883" style="stroke: #A80036; stroke-width: 1.5;" width="41" x="427.5" y="355.041"/><text fill="#000000" font-family="sans-serif" font-size="14" lengthAdjust="spacingAndGlyphs" textLength="27" x="434.5" y="375.5762">CP2</text><path d="M13,75.7988 L77,75.7988 L77,82.7988 L67,92.7988 L13,92.7988 L13,75.7988 " fill="#EEEEEE" style="stroke: #000000; stroke-width: 1.0;"/><rect fill="none" height="59.3105" style="stroke: #000000; stroke-width: 2.0;" width="234" x="13" y="75.7988"/><text fill="#000000" font-family="sans-serif" font-size="13" font-weight="bold" lengthAdjust="spacingAndGlyphs" textLength="19" x="28" y="89.3672">(1)</text><polygon fill="#A80036" points="97.5,95.1094,107.5,99.1094,97.5,103.1094,101.5,99.1094" style="stroke: #A80036; stroke-width: 1.0;"/><line style="stroke: #A80036; stroke-width: 1.0;" x1="50.5" x2="103.5" y1="99.1094" y2="99.1094"/><polygon fill="#A80036" points="150.5,109.1094,160.5,113.1094,150.5,117.1094,154.5,113.1094" style="stroke: #A80036; stroke-width: 1.0;"/><line style="stroke: #A80036; stroke-width: 1.0;" x1="50.5" x2="156.5" y1="113.1094" y2="113.1094"/><polygon fill="#A80036" points="203.5,123.1094,213.5,127.1094,203.5,131.1094,207.5,127.1094" style="stroke: #A80036; stroke-width: 1.0;"/><line style="stroke: #A80036; stroke-width: 1.0;" x1="50.5" x2="209.5" y1="127.1094" y2="127.1094"/><path d="M13,149.1094 L77,149.1094 L77,156.1094 L67,166.1094 L13,166.1094 L13,149.1094 " fill="#EEEEEE" style="stroke: #000000; stroke-width: 1.0;"/><rect fill="none" height="59.3105" style="stroke: #000000; stroke-width: 2.0;" width="234" x="13" y="149.1094"/><text fill="#000000" font-family="sans-serif" font-size="13" font-weight="bold" lengthAdjust="spacingAndGlyphs" textLength="19" x="28" y="162.6777">(2)</text><polygon fill="#A80036" points="61.5,168.4199,51.5,172.4199,61.5,176.4199,57.5,172.4199" style="stroke: #A80036; stroke-width: 1.0;"/><line style="stroke: #A80036; stroke-width: 1.0; stroke-dasharray: 2.0,2.0;" x1="55.5" x2="108.5" y1="172.4199" y2="172.4199"/><polygon fill="#A80036" points="61.5,182.4199,51.5,186.4199,61.5,190.4199,57.5,186.4199" style="stroke: #A80036; stroke-width: 1.0;"/><line style="stroke: #A80036; stroke-width: 1.0; stroke-dasharray: 2.0,2.0;" x1="55.5" x2="161.5" y1="186.4199" y2="186.4199"/><polygon fill="#A80036" points="61.5,196.4199,51.5,200.4199,61.5,204.4199,57.5,200.4199" style="stroke: #A80036; stroke-width: 1.0;"/><line style="stroke: #A80036; stroke-width: 1.0; stroke-dasharray: 2.0,2.0;" x1="55.5" x2="214.5" y1="200.4199" y2="200.4199"/><polygon fill="#A80036" points="288.5,232.7305,298.5,236.7305,288.5,240.7305,292.5,236.7305" style="stroke: #A80036; stroke-width: 1.0;"/><line style="stroke: #A80036; stroke-width: 1.0;" x1="50.5" x2="294.5" y1="236.7305" y2="236.7305"/><text fill="#000000" font-family="sans-serif" font-size="13" lengthAdjust="spacingAndGlyphs" textLength="16" x="57.5" y="231.9883">(3)</text><path d="M78,251.7305 L142,251.7305 L142,258.7305 L132,268.7305 L78,268.7305 L78,251.7305 " fill="#EEEEEE" style="stroke: #000000; stroke-width: 1.0;"/><rect fill="none" height="87.3105" style="stroke: #000000; stroke-width: 2.0;" width="404.5" x="78" y="251.7305"/><text fill="#000000" font-family="sans-serif" font-size="13" font-weight="bold" lengthAdjust="spacingAndGlyphs" textLength="19" x="93" y="265.2988">(4)</text><polygon fill="#A80036" points="383,271.041,393,275.041,383,279.041,387,275.041" style="stroke: #A80036; stroke-width: 1.0;"/><line style="stroke: #A80036; stroke-width: 1.0;" x1="300.5" x2="389" y1="275.041" y2="275.041"/><polygon fill="#A80036" points="438,285.041,448,289.041,438,293.041,442,289.041" style="stroke: #A80036; stroke-width: 1.0;"/><line style="stroke: #A80036; stroke-width: 1.0;" x1="300.5" x2="444" y1="289.041" y2="289.041"/><polygon fill="#A80036" points="120.5,299.041,110.5,303.041,120.5,307.041,116.5,303.041" style="stroke: #A80036; stroke-width: 1.0;"/><line style="stroke: #A80036; stroke-width: 1.0;" x1="114.5" x2="299.5" y1="303.041" y2="303.041"/><polygon fill="#A80036" points="173.5,313.041,163.5,317.041,173.5,321.041,169.5,317.041" style="stroke: #A80036; stroke-width: 1.0;"/><line style="stroke: #A80036; stroke-width: 1.0;" x1="167.5" x2="299.5" y1="317.041" y2="317.041"/><polygon fill="#A80036" points="226.5,327.041,216.5,331.041,226.5,335.041,222.5,331.041" style="stroke: #A80036; stroke-width: 1.0;"/><line style="stroke: #A80036; stroke-width: 1.0;" x1="220.5" x2="299.5" y1="331.041" y2="331.041"/><!--
@startuml
participant client
box "endorsing peers"
participant EP1
participant EP2
participant EP3
end box
participant os as "order service"
box "committing peers"
participant CP1
participant CP2
end box
group (1)
client -> EP1
client -> EP2
client -> EP3
end group
group (2)
EP1 - -> client
EP2 - -> client
EP3 - -> client
end group
client -> os: (3)
group (4)
os -> CP1
os -> CP2
os -> EP1
os -> EP2
os -> EP3
end group
@enduml

PlantUML version 1.2019.06(Sat May 25 01:10:25 CST 2019)
(APACHE source distribution)
Java Runtime: Java(TM) SE Runtime Environment
JVM: Java HotSpot(TM) 64-Bit Server VM
Java Version: 1.8.0_101-b13
Operating System: Mac OS X
OS Version: 10.14.6
Default Encoding: UTF-8
Language: en
Country: US
--></g></svg>